# xmcd
#
# Track frame offsets: 
#        150
#        20060
#        41610
#        57965
#        71975
#        94210
#        115125
#        135155
#        155960
#        175390
#        193880
#        210360
#
# Disc length: 3192 seconds
#
# Revision: 1
# Processed by: cddbd v1.5.2PL0 Copyright (c) Steve Scherf et al.
# Submitted via: ExactAudioCopyFreeDBPlugin 1.0
#
DISCID=b10c760c
DTITLE=Karim Albert Kook - Les Choses Ressemblent À Ça
DYEAR=1997
DGENRE=Blues
TTITLE0=Les Choses Ressemblent À Ça
TTITLE1=Le Silence Des Rêves
TTITLE2=Prends Moi Avec Toi
TTITLE3=À Force D´Aimer
TTITLE4=Je Suis Content D'Être Là
TTITLE5=All Fears Gone
TTITLE6=Rien Ne Dure
TTITLE7=C'est Pas Mon Jour
TTITLE8=Il Pleut Des Larmes
TTITLE9=Down At Your Knees
TTITLE10=Un Étrange Train
TTITLE11=Changer D'Univers
EXTD=YEAR: 1997
EXTT0=
EXTT1=
EXTT2=
EXTT3=
EXTT4=
EXTT5=
EXTT6=
EXTT7=
EXTT8=
EXTT9=
EXTT10=
EXTT11=
PLAYORDER=
